<svg xmlns="http://www.w3.org/2000/svg" xmlns:xlink="http://www.w3.org/1999/xlink" width="1590.291" height="551.263" viewBox="0 0 1590.291 551.263"><defs><linearGradient id="a" x1="0.5" x2="0.5" y2="1" gradientUnits="objectBoundingBox"><stop offset="0" stop-color="#a81a69"/><stop offset="1" stop-color="#950992"/></linearGradient><linearGradient id="d" x1="0.456" y1="1.318" x2="0.5" y2="-0.099" gradientUnits="objectBoundingBox"><stop offset="0" stop-color="#a81a69"/><stop offset="0.224" stop-color="#a11478"/><stop offset="1" stop-color="#950992"/></linearGradient></defs><g transform="translate(-174.811 -159.369)"><g transform="translate(2331.83 474.295)" opacity="0.69"><path d="M-1407.607,282c-1.609-9.005-7.073-14.991-15.849-17.7a31.742,31.742,0,0,0-13.306-.729c-5.592.678-10.933,2.284-15.345,5.895-2.389,1.956-4.3,4.49-6.43,6.767-.28.3-.546.613-.819.919-.113-.042-.227-.086-.34-.13,0-.484-.009-.967,0-1.451.118-5.566-2.046-10.07-6.73-13.042-3.168-2.011-6.661-3.518-10.008-5.249q-.6-.312-1.2-.623c.051-.125.1-.25.155-.375l9.424,2.662c.053-.12.1-.241.157-.359-1.9-.891-3.759-1.87-5.7-2.657-6.876-2.784-14.028-1.933-21.006-.917-5.971.87-10.41,4.615-13.4,9.9a32.466,32.466,0,0,0-4.083,12.558c-.8,7.226.641,13.789,5.406,19.469a62.561,62.561,0,0,0,11.239,10.459c6.895,5,13.933,9.8,20.987,14.576a12.778,12.778,0,0,1,4.682,5.42c.493,1.088,1.016,2.164,1.523,3.245.336.715.692,1.187,1.578.558.211-.15.953.1,1.162.382a3.869,3.869,0,0,1,.572,1.615c.317,1.9.551,3.812.873,5.71a4.608,4.608,0,0,0,.567,1.162,8.309,8.309,0,0,0,.928-.9c1.377-1.791,2.426-3.992,4.147-5.335,4.981-3.881,10.144-7.545,15.391-11.065,8.811-5.909,17.645-11.762,25.591-18.846a29.569,29.569,0,0,0,6.432-7.212C-1408.405,292.142-1406.678,287.2-1407.607,282Zm-76.775-26.558c.026.164.053.329.079.5a1.619,1.619,0,0,1-2.178.278c-.023-.146-.046-.289-.069-.433Zm-24.167,32.668a22.4,22.4,0,0,1,4.532,6.976A13.151,13.151,0,0,1-1508.549,288.108Zm24.225,23.165q-1.812-1.225-3.622-2.453c.079-.116.157-.229.234-.345q1.812,1.225,3.62,2.453C-1484.168,311.044-1484.247,311.157-1484.323,311.273Zm40.616,8.036c-.09-.125-.181-.25-.273-.375q1.948-1.413,3.9-2.824c.088.12.176.241.264.359Zm20.559-17.481,5.765-8.04C-1417.964,296.905-1421.475,301.777-1423.148,301.828Zm5.906-15.722a16.773,16.773,0,0,1-3.493,8.311,90.477,90.477,0,0,1-14.789,13.938c-5.349,4.178-10.818,8.2-16.157,12.389-1.872,1.467-3.525,3.215-5.254,4.865-1.828,1.747-3.627,3.53-5.638,5.49a16.939,16.939,0,0,1-.771-1.868c-1.632-6.254-5.372-11.01-10.438-14.856-4.328-3.286-8.432-6.916-12.977-9.862a40.348,40.348,0,0,1-13.523-14.641c-4.594-8.378-3.543-16.243,2.56-23.274,2.268-2.613,5.5-3.844,8.811-4.569,8.063-1.766,15.069.2,20.612,6.45,2.611,2.942,3.486,6.638,3.775,10.482.109,1.451.231,2.9.345,4.349.123.028.245.053.368.079.289-.673.634-1.331.856-2.025a3.09,3.09,0,0,1,2.064-2.12,16.151,16.151,0,0,0,2.8-1.759,23.677,23.677,0,0,1,2.914-1.819c4.4-1.977,8.786-3.972,13.255-5.772a25.267,25.267,0,0,1,12.473-1.747c.269.032.537.067.8.113s.518.106.778.16c-.014.088-.026.174-.039.259l-5.076.778c-.009.088-.021.178-.03.266.491.083.988.137,1.472.255,2.386.595,4.807,1.083,7.138,1.847a6.46,6.46,0,0,1,4.171,4.474c.669,2.044,1.558,4.02,2.416,6A6.676,6.676,0,0,1-1417.242,286.106Z" transform="translate(-180.14 -103.73)" fill="url(#a)"/><path d="M-1643.423,135.589a24.213,24.213,0,0,0-6.166-10.454,18.831,18.831,0,0,0-11-5.425c-2.335-.245-4.684-.389-7.029-.549a29.079,29.079,0,0,0-17.833,4.127c-.3.19-.574.433-.861.65.037.067.074.137.111.206l9.663-2.757c0,.294-.055.405-.143.447-.312.148-.646.252-.956.407-3.194,1.611-6.506,3.032-9.549,4.888a14.208,14.208,0,0,0-7.189,11.63c-.072,1.06-.009,2.127-.009,3.189-.123.037-.243.072-.366.106-.285-.349-.581-.694-.856-1.051-3.088-4.016-6.513-7.584-11.306-9.644-7.668-3.3-15.615-4.3-23.621-2.076-9.126,2.541-14.877,8.881-15.99,18.261-.912,7.686,2.176,14.449,7.955,19.761a188.117,188.117,0,0,0,23.057,17.6c6.5,4.349,12.889,8.881,19.212,13.491a23.169,23.169,0,0,1,3.793,4.289c.484.59.766,1.34,1.2,1.974.171.25.535.562.757.525.238-.039.479-.43.6-.717a4.56,4.56,0,0,0,.176-1.021c.313-1.977.56-3.967.977-5.92a6.925,6.925,0,0,1,1.157-1.863c-.718-.889-1.565-1.939-2.509-3.108-.454,1.183-.819,2.132-1.3,3.386-1.609-1.516-3.032-2.849-4.446-4.194-2.064-1.965-3.985-4.106-6.207-5.872-4.981-3.958-10.151-7.672-15.164-11.588a100.052,100.052,0,0,1-15.75-14.6,16.594,16.594,0,0,1-3.652-8.242,6.956,6.956,0,0,1,.474-3.953c.947-2.189,1.824-4.411,2.655-6.647a5.449,5.449,0,0,1,3.143-3.509c2.192-.8,4.453-1.421,6.707-2.039a26.787,26.787,0,0,1,2.958-.477v-.359q-2.534-.41-5.069-.822a5.522,5.522,0,0,1,1.849-.424,28.579,28.579,0,0,1,14.053,2.664c3.425,1.5,6.8,3.111,10.253,4.553a14.11,14.11,0,0,1,4.279,2.666,5.8,5.8,0,0,0,2.259,1.308,2.648,2.648,0,0,1,1.921,1.93c.255.771.609,1.507.919,2.257.15-.023.3-.046.451-.072.095-1.122.229-2.243.278-3.368.333-7.689,3.439-13.627,10.769-16.775a20.762,20.762,0,0,1,16.428-.391,14.772,14.772,0,0,1,6.427,4.173c4.08,5.071,5.772,10.746,4.173,17.187-.229.923.032,1.259.831,1.643a24.321,24.321,0,0,1,6.638,4.168,4.865,4.865,0,0,1-.694.646,6.955,6.955,0,0,1-.967.426c.109.148.22.3.331.447.389.287.778.572,1.268.933.324-.669.625-1.2.852-1.766C-1640.771,149.1-1641.194,142.329-1643.423,135.589Zm-69.651,46.275q1.33.965,2.657,1.935c-.058.079-.116.157-.171.236q-1.347-.969-2.692-1.939C-1713.21,182.017-1713.143,181.94-1713.074,181.864Zm-23.471-22.716q2.743,3.8,5.481,7.605c-.069.088-.139.176-.208.266a5.362,5.362,0,0,1-1.2-.958c-1.521-2.189-2.986-4.418-4.471-6.633C-1736.808,159.333-1736.677,159.24-1736.545,159.148Zm68.88-37.765c-.65-.058-1.3-.113-1.949-.169.03-.222.058-.444.086-.667l1.926.333C-1667.623,121.047-1667.644,121.214-1667.664,121.383Z" transform="translate(0 0)" opacity="0.32" fill="url(#a)"/><path d="M-1430.385,305.012c-8.294,8.044-17.806,14.186-27.554,20.578-.61-1.441-1.246-2.732-1.71-4.083-.867-2.524-.815-2.525,1.263-4.148,2.884-2.253,5.734-4.55,8.633-6.785a33.021,33.021,0,0,1,3.259-2.188,28.8,28.8,0,0,0,7.866-7.234,1.389,1.389,0,0,1,1.939-.521A16.526,16.526,0,0,1-1430.385,305.012Z" transform="translate(-220.194 -139.388)" fill="url(#a)"/></g><g transform="translate(2785.517 98.926)" opacity="0.24"><path d="M-1407.607,282c-1.609-9.005-7.073-14.991-15.849-17.7a31.742,31.742,0,0,0-13.306-.729c-5.592.678-10.933,2.284-15.345,5.895-2.389,1.956-4.3,4.49-6.43,6.767-.28.3-.546.613-.819.919-.113-.042-.227-.086-.34-.13,0-.484-.009-.967,0-1.451.118-5.566-2.046-10.07-6.73-13.042-3.168-2.011-6.661-3.518-10.008-5.249q-.6-.312-1.2-.623c.051-.125.1-.25.155-.375l9.424,2.662c.053-.12.1-.241.157-.359-1.9-.891-3.759-1.87-5.7-2.657-6.876-2.784-14.028-1.933-21.006-.917-5.971.87-10.41,4.615-13.4,9.9a32.466,32.466,0,0,0-4.083,12.558c-.8,7.226.641,13.789,5.406,19.469a62.561,62.561,0,0,0,11.239,10.459c6.895,5,13.933,9.8,20.987,14.576a12.778,12.778,0,0,1,4.682,5.42c.493,1.088,1.016,2.164,1.523,3.245.336.715.692,1.187,1.578.558.211-.15.953.1,1.162.382a3.869,3.869,0,0,1,.572,1.615c.317,1.9.551,3.812.873,5.71a4.608,4.608,0,0,0,.567,1.162,8.309,8.309,0,0,0,.928-.9c1.377-1.791,2.426-3.992,4.147-5.335,4.981-3.881,10.144-7.545,15.391-11.065,8.811-5.909,17.645-11.762,25.591-18.846a29.569,29.569,0,0,0,6.432-7.212C-1408.405,292.142-1406.678,287.2-1407.607,282Zm-76.775-26.558c.026.164.053.329.079.5a1.619,1.619,0,0,1-2.178.278c-.023-.146-.046-.289-.069-.433Zm-24.167,32.668a22.4,22.4,0,0,1,4.532,6.976A13.151,13.151,0,0,1-1508.549,288.108Zm24.225,23.165q-1.812-1.225-3.622-2.453c.079-.116.157-.229.234-.345q1.812,1.225,3.62,2.453C-1484.168,311.044-1484.247,311.157-1484.323,311.273Zm40.616,8.036c-.09-.125-.181-.25-.273-.375q1.948-1.413,3.9-2.824c.088.12.176.241.264.359Zm20.559-17.481,5.765-8.04C-1417.964,296.905-1421.475,301.777-1423.148,301.828Zm5.906-15.722a16.773,16.773,0,0,1-3.493,8.311,90.477,90.477,0,0,1-14.789,13.938c-5.349,4.178-10.818,8.2-16.157,12.389-1.872,1.467-3.525,3.215-5.254,4.865-1.828,1.747-3.627,3.53-5.638,5.49a16.939,16.939,0,0,1-.771-1.868c-1.632-6.254-5.372-11.01-10.438-14.856-4.328-3.286-8.432-6.916-12.977-9.862a40.348,40.348,0,0,1-13.523-14.641c-4.594-8.378-3.543-16.243,2.56-23.274,2.268-2.613,5.5-3.844,8.811-4.569,8.063-1.766,15.069.2,20.612,6.45,2.611,2.942,3.486,6.638,3.775,10.482.109,1.451.231,2.9.345,4.349.123.028.245.053.368.079.289-.673.634-1.331.856-2.025a3.09,3.09,0,0,1,2.064-2.12,16.151,16.151,0,0,0,2.8-1.759,23.677,23.677,0,0,1,2.914-1.819c4.4-1.977,8.786-3.972,13.255-5.772a25.267,25.267,0,0,1,12.473-1.747c.269.032.537.067.8.113s.518.106.778.16c-.014.088-.026.174-.039.259l-5.076.778c-.009.088-.021.178-.03.266.491.083.988.137,1.472.255,2.386.595,4.807,1.083,7.138,1.847a6.46,6.46,0,0,1,4.171,4.474c.669,2.044,1.558,4.02,2.416,6A6.676,6.676,0,0,1-1417.242,286.106Z" transform="translate(-180.14 -103.73)" fill="url(#d)"/><path d="M-1643.423,135.589a24.213,24.213,0,0,0-6.166-10.454,18.831,18.831,0,0,0-11-5.425c-2.335-.245-4.684-.389-7.029-.549a29.079,29.079,0,0,0-17.833,4.127c-.3.19-.574.433-.861.65.037.067.074.137.111.206l9.663-2.757c0,.294-.055.405-.143.447-.312.148-.646.252-.956.407-3.194,1.611-6.506,3.032-9.549,4.888a14.208,14.208,0,0,0-7.189,11.63c-.072,1.06-.009,2.127-.009,3.189-.123.037-.243.072-.366.106-.285-.349-.581-.694-.856-1.051-3.088-4.016-6.513-7.584-11.306-9.644-7.668-3.3-15.615-4.3-23.621-2.076-9.126,2.541-14.877,8.881-15.99,18.261-.912,7.686,2.176,14.449,7.955,19.761a188.117,188.117,0,0,0,23.057,17.6c6.5,4.349,12.889,8.881,19.212,13.491a23.169,23.169,0,0,1,3.793,4.289c.484.59.766,1.34,1.2,1.974.171.25.535.562.757.525.238-.039.479-.43.6-.717a4.56,4.56,0,0,0,.176-1.021c.313-1.977.56-3.967.977-5.92a6.925,6.925,0,0,1,1.157-1.863c-.718-.889-1.565-1.939-2.509-3.108-.454,1.183-.819,2.132-1.3,3.386-1.609-1.516-3.032-2.849-4.446-4.194-2.064-1.965-3.985-4.106-6.207-5.872-4.981-3.958-10.151-7.672-15.164-11.588a100.052,100.052,0,0,1-15.75-14.6,16.594,16.594,0,0,1-3.652-8.242,6.956,6.956,0,0,1,.474-3.953c.947-2.189,1.824-4.411,2.655-6.647a5.449,5.449,0,0,1,3.143-3.509c2.192-.8,4.453-1.421,6.707-2.039a26.787,26.787,0,0,1,2.958-.477v-.359q-2.534-.41-5.069-.822a5.522,5.522,0,0,1,1.849-.424,28.579,28.579,0,0,1,14.053,2.664c3.425,1.5,6.8,3.111,10.253,4.553a14.11,14.11,0,0,1,4.279,2.666,5.8,5.8,0,0,0,2.259,1.308,2.648,2.648,0,0,1,1.921,1.93c.255.771.609,1.507.919,2.257.15-.023.3-.046.451-.072.095-1.122.229-2.243.278-3.368.333-7.689,3.439-13.627,10.769-16.775a20.762,20.762,0,0,1,16.428-.391,14.772,14.772,0,0,1,6.427,4.173c4.08,5.071,5.772,10.746,4.173,17.187-.229.923.032,1.259.831,1.643a24.321,24.321,0,0,1,6.638,4.168,4.865,4.865,0,0,1-.694.646,6.955,6.955,0,0,1-.967.426c.109.148.22.3.331.447.389.287.778.572,1.268.933.324-.669.625-1.2.852-1.766C-1640.771,149.1-1641.194,142.329-1643.423,135.589Zm-69.651,46.275q1.33.965,2.657,1.935c-.058.079-.116.157-.171.236q-1.347-.969-2.692-1.939C-1713.21,182.017-1713.143,181.94-1713.074,181.864Zm-23.471-22.716q2.743,3.8,5.481,7.605c-.069.088-.139.176-.208.266a5.362,5.362,0,0,1-1.2-.958c-1.521-2.189-2.986-4.418-4.471-6.633C-1736.808,159.333-1736.677,159.24-1736.545,159.148Zm68.88-37.765c-.65-.058-1.3-.113-1.949-.169.03-.222.058-.444.086-.667l1.926.333C-1667.623,121.047-1667.644,121.214-1667.664,121.383Z" transform="translate(0 0)" fill="url(#d)"/><path d="M-1430.385,305.012c-8.294,8.044-17.806,14.186-27.554,20.578-.61-1.441-1.246-2.732-1.71-4.083-.867-2.524-.815-2.525,1.263-4.148,2.884-2.253,5.734-4.55,8.633-6.785a33.021,33.021,0,0,1,3.259-2.188,28.8,28.8,0,0,0,7.866-7.234,1.389,1.389,0,0,1,1.939-.521A16.526,16.526,0,0,1-1430.385,305.012Z" transform="translate(-220.194 -139.388)" fill="url(#d)"/></g><g transform="translate(3299.517 41.565)" opacity="0.36"><path d="M-1372.7,291.319c-2.145-12.008-9.431-19.989-21.134-23.6-5.781-1.784-11.792-1.7-17.742-.972-7.456.9-14.579,3.046-20.461,7.86-3.185,2.608-5.737,5.987-8.573,9.024-.373.4-.728.818-1.093,1.225-.151-.056-.3-.114-.454-.173,0-.645-.012-1.29,0-1.935.157-7.422-2.728-13.428-8.974-17.39-4.225-2.682-8.882-4.691-13.344-7q-.805-.417-1.6-.83c.068-.167.136-.333.207-.5l12.567,3.549c.071-.16.139-.321.21-.478-2.531-1.188-5.012-2.494-7.6-3.543-9.169-3.713-18.705-2.577-28.01-1.222-7.962,1.16-13.881,6.154-17.869,13.206a43.29,43.29,0,0,0-5.444,16.745c-1.062,9.635.855,18.387,7.209,25.96a83.424,83.424,0,0,0,14.986,13.946c9.193,6.663,18.578,13.07,27.985,19.436a17.039,17.039,0,0,1,6.243,7.228c.657,1.45,1.355,2.886,2.031,4.327.447.954.923,1.583,2.1.744.281-.2,1.271.133,1.549.509a5.158,5.158,0,0,1,.762,2.154c.423,2.534.734,5.083,1.163,7.613a6.146,6.146,0,0,0,.756,1.549,11.078,11.078,0,0,0,1.238-1.2c1.836-2.389,3.234-5.324,5.53-7.114,6.641-5.175,13.526-10.061,20.523-14.755,11.749-7.879,23.529-15.684,34.123-25.13,3.24-2.889,6.4-5.8,8.576-9.616C-1373.766,304.845-1371.464,298.256-1372.7,291.319Zm-102.373-35.413c.034.219.071.438.1.66a2.159,2.159,0,0,1-2.9.37c-.031-.194-.062-.386-.093-.577Zm-32.225,43.561a29.869,29.869,0,0,1,6.042,9.3C-1504.457,306.438-1506.112,303.1-1507.3,299.466Zm32.3,30.889q-2.416-1.634-4.83-3.271c.1-.154.21-.306.312-.46q2.416,1.634,4.827,3.271C-1474.791,330.05-1474.9,330.2-1475,330.355Zm54.158,10.715c-.12-.167-.241-.333-.364-.5q2.6-1.884,5.194-3.765c.117.16.234.321.352.478Zm27.414-23.31c2.626-3.663,5.157-7.191,7.688-10.721C-1386.512,311.2-1391.194,317.693-1393.425,317.761Zm7.876-20.964a22.364,22.364,0,0,1-4.657,11.082c-5.756,7.07-12.579,13-19.72,18.585s-14.425,10.931-21.544,16.52c-2.5,1.957-4.7,4.287-7.005,6.487-2.438,2.33-4.836,4.706-7.518,7.32a22.582,22.582,0,0,1-1.028-2.491c-2.176-8.339-7.163-14.681-13.918-19.81-5.771-4.382-11.243-9.221-17.3-13.15a53.8,53.8,0,0,1-18.032-19.523c-6.126-11.172-4.725-21.658,3.413-31.034,3.024-3.484,7.33-5.126,11.749-6.092,10.752-2.355,20.094.265,27.485,8.6,3.481,3.922,4.648,8.851,5.034,13.977.145,1.935.309,3.867.46,5.8.164.037.327.071.491.1.386-.9.846-1.775,1.142-2.7a4.121,4.121,0,0,1,2.753-2.827,21.534,21.534,0,0,0,3.731-2.345,31.58,31.58,0,0,1,3.885-2.426c5.861-2.636,11.715-5.3,17.674-7.7a33.691,33.691,0,0,1,16.631-2.33c.358.043.716.089,1.071.151s.691.142,1.037.213c-.019.117-.034.231-.052.346l-6.768,1.037c-.012.117-.028.238-.04.355.654.111,1.318.182,1.963.339,3.182.793,6.41,1.444,9.518,2.463a8.614,8.614,0,0,1,5.561,5.965c.892,2.725,2.077,5.361,3.222,8A8.9,8.9,0,0,1-1385.549,296.8Z" transform="translate(-162.053 -93.315)" fill="url(#d)"/><path d="M-1608.994,141.1c-1.725-5.212-4.123-10.113-8.221-13.94-4.151-3.876-8.9-6.632-14.668-7.234-3.114-.327-6.246-.518-9.373-.731-8.481-.577-16.48.96-23.779,5.5-.4.253-.765.577-1.148.867.049.089.1.182.148.275l12.885-3.676c.006.392-.074.54-.191.6-.417.2-.861.336-1.275.543-4.259,2.148-8.675,4.043-12.733,6.518a18.945,18.945,0,0,0-9.586,15.508c-.1,1.413-.012,2.836-.012,4.253-.163.049-.324.1-.487.142-.38-.466-.775-.926-1.142-1.4-4.117-5.354-8.685-10.113-15.076-12.86-10.224-4.395-20.822-5.737-31.5-2.768-12.169,3.389-19.838,11.841-21.322,24.35-1.216,10.249,2.9,19.267,10.607,26.349,9.527,8.758,20,16.282,30.744,23.467,8.672,5.8,17.187,11.841,25.618,17.989,2.009,1.466,3.444,3.747,5.058,5.719.645.787,1.022,1.787,1.6,2.632.228.333.713.75,1.009.7.318-.052.639-.574.8-.957a6.086,6.086,0,0,0,.234-1.361c.417-2.636.747-5.29,1.3-7.894a9.234,9.234,0,0,1,1.543-2.484c-.957-1.185-2.086-2.586-3.345-4.145-.6,1.577-1.092,2.842-1.734,4.515-2.145-2.021-4.043-3.8-5.928-5.592-2.753-2.62-5.314-5.475-8.277-7.829-6.641-5.277-13.536-10.231-20.22-15.452-7.54-5.9-14.851-12.061-21-19.473a22.127,22.127,0,0,1-4.87-10.99,9.276,9.276,0,0,1,.633-5.271c1.262-2.919,2.432-5.882,3.54-8.863a7.265,7.265,0,0,1,4.191-4.679c2.923-1.065,5.938-1.895,8.944-2.719a35.72,35.72,0,0,1,3.944-.636v-.478q-3.379-.546-6.759-1.1a7.364,7.364,0,0,1,2.466-.565,38.109,38.109,0,0,1,18.739,3.552c4.567,2,9.073,4.148,13.672,6.07a18.815,18.815,0,0,1,5.706,3.555,7.734,7.734,0,0,0,3.012,1.744,3.53,3.53,0,0,1,2.562,2.574c.34,1.028.812,2.009,1.225,3.009.2-.031.4-.062.6-.1.126-1.5.305-2.99.37-4.49.445-10.252,4.586-18.171,14.36-22.368a27.685,27.685,0,0,1,21.905-.522c3.219,1.281,6.333,2.778,8.57,5.564,5.441,6.762,7.7,14.329,5.564,22.918-.305,1.231.043,1.679,1.108,2.191a32.425,32.425,0,0,1,8.851,5.558,6.474,6.474,0,0,1-.926.861,9.257,9.257,0,0,1-1.29.568c.145.2.293.4.442.6.518.383,1.037.762,1.691,1.244.432-.892.833-1.6,1.135-2.355C-1605.457,159.112-1606.022,150.082-1608.994,141.1Zm-92.874,61.7q1.773,1.287,3.543,2.58c-.077.1-.154.21-.228.315q-1.8-1.292-3.589-2.586C-1702.05,203-1701.961,202.9-1701.868,202.8Zm-31.3-30.29q3.657,5.069,7.308,10.141c-.093.117-.185.235-.278.355a7.143,7.143,0,0,1-1.6-1.278c-2.028-2.919-3.981-5.891-5.962-8.845C-1733.516,172.756-1733.34,172.633-1733.164,172.509Zm91.846-50.356c-.867-.077-1.731-.151-2.6-.225.04-.3.077-.593.114-.889l2.567.444C-1641.263,121.705-1641.291,121.928-1641.318,122.153Z" transform="translate(0 0)" fill="url(#d)"/><path d="M-1420.452,306.537c-11.059,10.726-23.743,18.916-36.741,27.44-.813-1.921-1.661-3.643-2.28-5.444-1.156-3.366-1.087-3.366,1.684-5.531,3.846-3,7.647-6.068,11.511-9.048a44.041,44.041,0,0,1,4.346-2.918,38.4,38.4,0,0,0,10.488-9.647,1.852,1.852,0,0,1,2.585-.695A22.036,22.036,0,0,1-1420.452,306.537Z" transform="translate(-198.085 -125.392)" fill="url(#d)"/></g><g transform="translate(2111.682 430.926)" opacity="0.32"><path d="M-1407.607,282c-1.609-9.005-7.073-14.991-15.849-17.7a31.742,31.742,0,0,0-13.306-.729c-5.592.678-10.933,2.284-15.345,5.895-2.389,1.956-4.3,4.49-6.43,6.767-.28.3-.546.613-.819.919-.113-.042-.227-.086-.34-.13,0-.484-.009-.967,0-1.451.118-5.566-2.046-10.07-6.73-13.042-3.168-2.011-6.661-3.518-10.008-5.249q-.6-.312-1.2-.623c.051-.125.1-.25.155-.375l9.424,2.662c.053-.12.1-.241.157-.359-1.9-.891-3.759-1.87-5.7-2.657-6.876-2.784-14.028-1.933-21.006-.917-5.971.87-10.41,4.615-13.4,9.9a32.466,32.466,0,0,0-4.083,12.558c-.8,7.226.641,13.789,5.406,19.469a62.561,62.561,0,0,0,11.239,10.459c6.895,5,13.933,9.8,20.987,14.576a12.778,12.778,0,0,1,4.682,5.42c.493,1.088,1.016,2.164,1.523,3.245.336.715.692,1.187,1.578.558.211-.15.953.1,1.162.382a3.869,3.869,0,0,1,.572,1.615c.317,1.9.551,3.812.873,5.71a4.608,4.608,0,0,0,.567,1.162,8.309,8.309,0,0,0,.928-.9c1.377-1.791,2.426-3.992,4.147-5.335,4.981-3.881,10.144-7.545,15.391-11.065,8.811-5.909,17.645-11.762,25.591-18.846a29.569,29.569,0,0,0,6.432-7.212C-1408.405,292.142-1406.678,287.2-1407.607,282Zm-76.775-26.558c.026.164.053.329.079.5a1.619,1.619,0,0,1-2.178.278c-.023-.146-.046-.289-.069-.433Zm-24.167,32.668a22.4,22.4,0,0,1,4.532,6.976A13.151,13.151,0,0,1-1508.549,288.108Zm24.225,23.165q-1.812-1.225-3.622-2.453c.079-.116.157-.229.234-.345q1.812,1.225,3.62,2.453C-1484.168,311.044-1484.247,311.157-1484.323,311.273Zm40.616,8.036c-.09-.125-.181-.25-.273-.375q1.948-1.413,3.9-2.824c.088.12.176.241.264.359Zm20.559-17.481,5.765-8.04C-1417.964,296.905-1421.475,301.777-1423.148,301.828Zm5.906-15.722a16.773,16.773,0,0,1-3.493,8.311,90.477,90.477,0,0,1-14.789,13.938c-5.349,4.178-10.818,8.2-16.157,12.389-1.872,1.467-3.525,3.215-5.254,4.865-1.828,1.747-3.627,3.53-5.638,5.49a16.939,16.939,0,0,1-.771-1.868c-1.632-6.254-5.372-11.01-10.438-14.856-4.328-3.286-8.432-6.916-12.977-9.862a40.348,40.348,0,0,1-13.523-14.641c-4.594-8.378-3.543-16.243,2.56-23.274,2.268-2.613,5.5-3.844,8.811-4.569,8.063-1.766,15.069.2,20.612,6.45,2.611,2.942,3.486,6.638,3.775,10.482.109,1.451.231,2.9.345,4.349.123.028.245.053.368.079.289-.673.634-1.331.856-2.025a3.09,3.09,0,0,1,2.064-2.12,16.151,16.151,0,0,0,2.8-1.759,23.677,23.677,0,0,1,2.914-1.819c4.4-1.977,8.786-3.972,13.255-5.772a25.267,25.267,0,0,1,12.473-1.747c.269.032.537.067.8.113s.518.106.778.16c-.014.088-.026.174-.039.259l-5.076.778c-.009.088-.021.178-.03.266.491.083.988.137,1.472.255,2.386.595,4.807,1.083,7.138,1.847a6.46,6.46,0,0,1,4.171,4.474c.669,2.044,1.558,4.02,2.416,6A6.676,6.676,0,0,1-1417.242,286.106Z" transform="translate(-180.14 -103.73)" fill="url(#a)"/><path d="M-1643.423,135.589a24.213,24.213,0,0,0-6.166-10.454,18.831,18.831,0,0,0-11-5.425c-2.335-.245-4.684-.389-7.029-.549a29.079,29.079,0,0,0-17.833,4.127c-.3.19-.574.433-.861.65.037.067.074.137.111.206l9.663-2.757c0,.294-.055.405-.143.447-.312.148-.646.252-.956.407-3.194,1.611-6.506,3.032-9.549,4.888a14.208,14.208,0,0,0-7.189,11.63c-.072,1.06-.009,2.127-.009,3.189-.123.037-.243.072-.366.106-.285-.349-.581-.694-.856-1.051-3.088-4.016-6.513-7.584-11.306-9.644-7.668-3.3-15.615-4.3-23.621-2.076-9.126,2.541-14.877,8.881-15.99,18.261-.912,7.686,2.176,14.449,7.955,19.761a188.117,188.117,0,0,0,23.057,17.6c6.5,4.349,12.889,8.881,19.212,13.491a23.169,23.169,0,0,1,3.793,4.289c.484.59.766,1.34,1.2,1.974.171.25.535.562.757.525.238-.039.479-.43.6-.717a4.56,4.56,0,0,0,.176-1.021c.313-1.977.56-3.967.977-5.92a6.925,6.925,0,0,1,1.157-1.863c-.718-.889-1.565-1.939-2.509-3.108-.454,1.183-.819,2.132-1.3,3.386-1.609-1.516-3.032-2.849-4.446-4.194-2.064-1.965-3.985-4.106-6.207-5.872-4.981-3.958-10.151-7.672-15.164-11.588a100.052,100.052,0,0,1-15.75-14.6,16.594,16.594,0,0,1-3.652-8.242,6.956,6.956,0,0,1,.474-3.953c.947-2.189,1.824-4.411,2.655-6.647a5.449,5.449,0,0,1,3.143-3.509c2.192-.8,4.453-1.421,6.707-2.039a26.787,26.787,0,0,1,2.958-.477v-.359q-2.534-.41-5.069-.822a5.522,5.522,0,0,1,1.849-.424,28.579,28.579,0,0,1,14.053,2.664c3.425,1.5,6.8,3.111,10.253,4.553a14.11,14.11,0,0,1,4.279,2.666,5.8,5.8,0,0,0,2.259,1.308,2.648,2.648,0,0,1,1.921,1.93c.255.771.609,1.507.919,2.257.15-.023.3-.046.451-.072.095-1.122.229-2.243.278-3.368.333-7.689,3.439-13.627,10.769-16.775a20.762,20.762,0,0,1,16.428-.391,14.772,14.772,0,0,1,6.427,4.173c4.08,5.071,5.772,10.746,4.173,17.187-.229.923.032,1.259.831,1.643a24.321,24.321,0,0,1,6.638,4.168,4.865,4.865,0,0,1-.694.646,6.955,6.955,0,0,1-.967.426c.109.148.22.3.331.447.389.287.778.572,1.268.933.324-.669.625-1.2.852-1.766C-1640.771,149.1-1641.194,142.329-1643.423,135.589Zm-69.651,46.275q1.33.965,2.657,1.935c-.058.079-.116.157-.171.236q-1.347-.969-2.692-1.939C-1713.21,182.017-1713.143,181.94-1713.074,181.864Zm-23.471-22.716q2.743,3.8,5.481,7.605c-.069.088-.139.176-.208.266a5.362,5.362,0,0,1-1.2-.958c-1.521-2.189-2.986-4.418-4.471-6.633C-1736.808,159.333-1736.677,159.24-1736.545,159.148Zm68.88-37.765c-.65-.058-1.3-.113-1.949-.169.03-.222.058-.444.086-.667l1.926.333C-1667.623,121.047-1667.644,121.214-1667.664,121.383Z" transform="translate(0 0)" fill="url(#a)"/><path d="M-1430.385,305.012c-8.294,8.044-17.806,14.186-27.554,20.578-.61-1.441-1.246-2.732-1.71-4.083-.867-2.524-.815-2.525,1.263-4.148,2.884-2.253,5.734-4.55,8.633-6.785a33.021,33.021,0,0,1,3.259-2.188,28.8,28.8,0,0,0,7.866-7.234,1.389,1.389,0,0,1,1.939-.521A16.526,16.526,0,0,1-1430.385,305.012Z" transform="translate(-220.194 -139.388)" fill="url(#a)"/></g><g transform="translate(2388.682 305.295)" opacity="0.26"><path d="M-1407.607,282c-1.609-9.005-7.073-14.991-15.849-17.7a31.742,31.742,0,0,0-13.306-.729c-5.592.678-10.933,2.284-15.345,5.895-2.389,1.956-4.3,4.49-6.43,6.767-.28.3-.546.613-.819.919-.113-.042-.227-.086-.34-.13,0-.484-.009-.967,0-1.451.118-5.566-2.046-10.07-6.73-13.042-3.168-2.011-6.661-3.518-10.008-5.249q-.6-.312-1.2-.623c.051-.125.1-.25.155-.375l9.424,2.662c.053-.12.1-.241.157-.359-1.9-.891-3.759-1.87-5.7-2.657-6.876-2.784-14.028-1.933-21.006-.917-5.971.87-10.41,4.615-13.4,9.9a32.466,32.466,0,0,0-4.083,12.558c-.8,7.226.641,13.789,5.406,19.469a62.561,62.561,0,0,0,11.239,10.459c6.895,5,13.933,9.8,20.987,14.576a12.778,12.778,0,0,1,4.682,5.42c.493,1.088,1.016,2.164,1.523,3.245.336.715.692,1.187,1.578.558.211-.15.953.1,1.162.382a3.869,3.869,0,0,1,.572,1.615c.317,1.9.551,3.812.873,5.71a4.608,4.608,0,0,0,.567,1.162,8.309,8.309,0,0,0,.928-.9c1.377-1.791,2.426-3.992,4.147-5.335,4.981-3.881,10.144-7.545,15.391-11.065,8.811-5.909,17.645-11.762,25.591-18.846a29.569,29.569,0,0,0,6.432-7.212C-1408.405,292.142-1406.678,287.2-1407.607,282Zm-76.775-26.558c.026.164.053.329.079.5a1.619,1.619,0,0,1-2.178.278c-.023-.146-.046-.289-.069-.433Zm-24.167,32.668a22.4,22.4,0,0,1,4.532,6.976A13.151,13.151,0,0,1-1508.549,288.108Zm24.225,23.165q-1.812-1.225-3.622-2.453c.079-.116.157-.229.234-.345q1.812,1.225,3.62,2.453C-1484.168,311.044-1484.247,311.157-1484.323,311.273Zm40.616,8.036c-.09-.125-.181-.25-.273-.375q1.948-1.413,3.9-2.824c.088.12.176.241.264.359Zm20.559-17.481,5.765-8.04C-1417.964,296.905-1421.475,301.777-1423.148,301.828Zm5.906-15.722a16.773,16.773,0,0,1-3.493,8.311,90.477,90.477,0,0,1-14.789,13.938c-5.349,4.178-10.818,8.2-16.157,12.389-1.872,1.467-3.525,3.215-5.254,4.865-1.828,1.747-3.627,3.53-5.638,5.49a16.939,16.939,0,0,1-.771-1.868c-1.632-6.254-5.372-11.01-10.438-14.856-4.328-3.286-8.432-6.916-12.977-9.862a40.348,40.348,0,0,1-13.523-14.641c-4.594-8.378-3.543-16.243,2.56-23.274,2.268-2.613,5.5-3.844,8.811-4.569,8.063-1.766,15.069.2,20.612,6.45,2.611,2.942,3.486,6.638,3.775,10.482.109,1.451.231,2.9.345,4.349.123.028.245.053.368.079.289-.673.634-1.331.856-2.025a3.09,3.09,0,0,1,2.064-2.12,16.151,16.151,0,0,0,2.8-1.759,23.677,23.677,0,0,1,2.914-1.819c4.4-1.977,8.786-3.972,13.255-5.772a25.267,25.267,0,0,1,12.473-1.747c.269.032.537.067.8.113s.518.106.778.16c-.014.088-.026.174-.039.259l-5.076.778c-.009.088-.021.178-.03.266.491.083.988.137,1.472.255,2.386.595,4.807,1.083,7.138,1.847a6.46,6.46,0,0,1,4.171,4.474c.669,2.044,1.558,4.02,2.416,6A6.676,6.676,0,0,1-1417.242,286.106Z" transform="translate(-180.14 -103.73)" fill="url(#a)"/><path d="M-1643.423,135.589a24.213,24.213,0,0,0-6.166-10.454,18.831,18.831,0,0,0-11-5.425c-2.335-.245-4.684-.389-7.029-.549a29.079,29.079,0,0,0-17.833,4.127c-.3.19-.574.433-.861.65.037.067.074.137.111.206l9.663-2.757c0,.294-.055.405-.143.447-.312.148-.646.252-.956.407-3.194,1.611-6.506,3.032-9.549,4.888a14.208,14.208,0,0,0-7.189,11.63c-.072,1.06-.009,2.127-.009,3.189-.123.037-.243.072-.366.106-.285-.349-.581-.694-.856-1.051-3.088-4.016-6.513-7.584-11.306-9.644-7.668-3.3-15.615-4.3-23.621-2.076-9.126,2.541-14.877,8.881-15.99,18.261-.912,7.686,2.176,14.449,7.955,19.761a188.117,188.117,0,0,0,23.057,17.6c6.5,4.349,12.889,8.881,19.212,13.491a23.169,23.169,0,0,1,3.793,4.289c.484.59.766,1.34,1.2,1.974.171.25.535.562.757.525.238-.039.479-.43.6-.717a4.56,4.56,0,0,0,.176-1.021c.313-1.977.56-3.967.977-5.92a6.925,6.925,0,0,1,1.157-1.863c-.718-.889-1.565-1.939-2.509-3.108-.454,1.183-.819,2.132-1.3,3.386-1.609-1.516-3.032-2.849-4.446-4.194-2.064-1.965-3.985-4.106-6.207-5.872-4.981-3.958-10.151-7.672-15.164-11.588a100.052,100.052,0,0,1-15.75-14.6,16.594,16.594,0,0,1-3.652-8.242,6.956,6.956,0,0,1,.474-3.953c.947-2.189,1.824-4.411,2.655-6.647a5.449,5.449,0,0,1,3.143-3.509c2.192-.8,4.453-1.421,6.707-2.039a26.787,26.787,0,0,1,2.958-.477v-.359q-2.534-.41-5.069-.822a5.522,5.522,0,0,1,1.849-.424,28.579,28.579,0,0,1,14.053,2.664c3.425,1.5,6.8,3.111,10.253,4.553a14.11,14.11,0,0,1,4.279,2.666,5.8,5.8,0,0,0,2.259,1.308,2.648,2.648,0,0,1,1.921,1.93c.255.771.609,1.507.919,2.257.15-.023.3-.046.451-.072.095-1.122.229-2.243.278-3.368.333-7.689,3.439-13.627,10.769-16.775a20.762,20.762,0,0,1,16.428-.391,14.772,14.772,0,0,1,6.427,4.173c4.08,5.071,5.772,10.746,4.173,17.187-.229.923.032,1.259.831,1.643a24.321,24.321,0,0,1,6.638,4.168,4.865,4.865,0,0,1-.694.646,6.955,6.955,0,0,1-.967.426c.109.148.22.3.331.447.389.287.778.572,1.268.933.324-.669.625-1.2.852-1.766C-1640.771,149.1-1641.194,142.329-1643.423,135.589Zm-69.651,46.275q1.33.965,2.657,1.935c-.058.079-.116.157-.171.236q-1.347-.969-2.692-1.939C-1713.21,182.017-1713.143,181.94-1713.074,181.864Zm-23.471-22.716q2.743,3.8,5.481,7.605c-.069.088-.139.176-.208.266a5.362,5.362,0,0,1-1.2-.958c-1.521-2.189-2.986-4.418-4.471-6.633C-1736.808,159.333-1736.677,159.24-1736.545,159.148Zm68.88-37.765c-.65-.058-1.3-.113-1.949-.169.03-.222.058-.444.086-.667l1.926.333C-1667.623,121.047-1667.644,121.214-1667.664,121.383Z" transform="translate(0 0)" fill="url(#a)"/><path d="M-1430.385,305.012c-8.294,8.044-17.806,14.186-27.554,20.578-.61-1.441-1.246-2.732-1.71-4.083-.867-2.524-.815-2.525,1.263-4.148,2.884-2.253,5.734-4.55,8.633-6.785a33.021,33.021,0,0,1,3.259-2.188,28.8,28.8,0,0,0,7.866-7.234,1.389,1.389,0,0,1,1.939-.521A16.526,16.526,0,0,1-1430.385,305.012Z" transform="translate(-220.194 -139.388)" fill="url(#a)"/></g><g transform="translate(1921.493 40.295)" opacity="0.32"><path d="M-1407.607,282c-1.609-9.005-7.073-14.991-15.849-17.7a31.742,31.742,0,0,0-13.306-.729c-5.592.678-10.933,2.284-15.345,5.895-2.389,1.956-4.3,4.49-6.43,6.767-.28.3-.546.613-.819.919-.113-.042-.227-.086-.34-.13,0-.484-.009-.967,0-1.451.118-5.566-2.046-10.07-6.73-13.042-3.168-2.011-6.661-3.518-10.008-5.249q-.6-.312-1.2-.623c.051-.125.1-.25.155-.375l9.424,2.662c.053-.12.1-.241.157-.359-1.9-.891-3.759-1.87-5.7-2.657-6.876-2.784-14.028-1.933-21.006-.917-5.971.87-10.41,4.615-13.4,9.9a32.466,32.466,0,0,0-4.083,12.558c-.8,7.226.641,13.789,5.406,19.469a62.561,62.561,0,0,0,11.239,10.459c6.895,5,13.933,9.8,20.987,14.576a12.778,12.778,0,0,1,4.682,5.42c.493,1.088,1.016,2.164,1.523,3.245.336.715.692,1.187,1.578.558.211-.15.953.1,1.162.382a3.869,3.869,0,0,1,.572,1.615c.317,1.9.551,3.812.873,5.71a4.608,4.608,0,0,0,.567,1.162,8.309,8.309,0,0,0,.928-.9c1.377-1.791,2.426-3.992,4.147-5.335,4.981-3.881,10.144-7.545,15.391-11.065,8.811-5.909,17.645-11.762,25.591-18.846a29.569,29.569,0,0,0,6.432-7.212C-1408.405,292.142-1406.678,287.2-1407.607,282Zm-76.775-26.558c.026.164.053.329.079.5a1.619,1.619,0,0,1-2.178.278c-.023-.146-.046-.289-.069-.433Zm-24.167,32.668a22.4,22.4,0,0,1,4.532,6.976A13.151,13.151,0,0,1-1508.549,288.108Zm24.225,23.165q-1.812-1.225-3.622-2.453c.079-.116.157-.229.234-.345q1.812,1.225,3.62,2.453C-1484.168,311.044-1484.247,311.157-1484.323,311.273Zm40.616,8.036c-.09-.125-.181-.25-.273-.375q1.948-1.413,3.9-2.824c.088.12.176.241.264.359Zm20.559-17.481,5.765-8.04C-1417.964,296.905-1421.475,301.777-1423.148,301.828Zm5.906-15.722a16.773,16.773,0,0,1-3.493,8.311,90.477,90.477,0,0,1-14.789,13.938c-5.349,4.178-10.818,8.2-16.157,12.389-1.872,1.467-3.525,3.215-5.254,4.865-1.828,1.747-3.627,3.53-5.638,5.49a16.939,16.939,0,0,1-.771-1.868c-1.632-6.254-5.372-11.01-10.438-14.856-4.328-3.286-8.432-6.916-12.977-9.862a40.348,40.348,0,0,1-13.523-14.641c-4.594-8.378-3.543-16.243,2.56-23.274,2.268-2.613,5.5-3.844,8.811-4.569,8.063-1.766,15.069.2,20.612,6.45,2.611,2.942,3.486,6.638,3.775,10.482.109,1.451.231,2.9.345,4.349.123.028.245.053.368.079.289-.673.634-1.331.856-2.025a3.09,3.09,0,0,1,2.064-2.12,16.151,16.151,0,0,0,2.8-1.759,23.677,23.677,0,0,1,2.914-1.819c4.4-1.977,8.786-3.972,13.255-5.772a25.267,25.267,0,0,1,12.473-1.747c.269.032.537.067.8.113s.518.106.778.16c-.014.088-.026.174-.039.259l-5.076.778c-.009.088-.021.178-.03.266.491.083.988.137,1.472.255,2.386.595,4.807,1.083,7.138,1.847a6.46,6.46,0,0,1,4.171,4.474c.669,2.044,1.558,4.02,2.416,6A6.676,6.676,0,0,1-1417.242,286.106Z" transform="translate(-180.14 -103.73)" fill="url(#a)"/><path d="M-1643.423,135.589a24.213,24.213,0,0,0-6.166-10.454,18.831,18.831,0,0,0-11-5.425c-2.335-.245-4.684-.389-7.029-.549a29.079,29.079,0,0,0-17.833,4.127c-.3.19-.574.433-.861.65.037.067.074.137.111.206l9.663-2.757c0,.294-.055.405-.143.447-.312.148-.646.252-.956.407-3.194,1.611-6.506,3.032-9.549,4.888a14.208,14.208,0,0,0-7.189,11.63c-.072,1.06-.009,2.127-.009,3.189-.123.037-.243.072-.366.106-.285-.349-.581-.694-.856-1.051-3.088-4.016-6.513-7.584-11.306-9.644-7.668-3.3-15.615-4.3-23.621-2.076-9.126,2.541-14.877,8.881-15.99,18.261-.912,7.686,2.176,14.449,7.955,19.761a188.117,188.117,0,0,0,23.057,17.6c6.5,4.349,12.889,8.881,19.212,13.491a23.169,23.169,0,0,1,3.793,4.289c.484.59.766,1.34,1.2,1.974.171.25.535.562.757.525.238-.039.479-.43.6-.717a4.56,4.56,0,0,0,.176-1.021c.313-1.977.56-3.967.977-5.92a6.925,6.925,0,0,1,1.157-1.863c-.718-.889-1.565-1.939-2.509-3.108-.454,1.183-.819,2.132-1.3,3.386-1.609-1.516-3.032-2.849-4.446-4.194-2.064-1.965-3.985-4.106-6.207-5.872-4.981-3.958-10.151-7.672-15.164-11.588a100.052,100.052,0,0,1-15.75-14.6,16.594,16.594,0,0,1-3.652-8.242,6.956,6.956,0,0,1,.474-3.953c.947-2.189,1.824-4.411,2.655-6.647a5.449,5.449,0,0,1,3.143-3.509c2.192-.8,4.453-1.421,6.707-2.039a26.787,26.787,0,0,1,2.958-.477v-.359q-2.534-.41-5.069-.822a5.522,5.522,0,0,1,1.849-.424,28.579,28.579,0,0,1,14.053,2.664c3.425,1.5,6.8,3.111,10.253,4.553a14.11,14.11,0,0,1,4.279,2.666,5.8,5.8,0,0,0,2.259,1.308,2.648,2.648,0,0,1,1.921,1.93c.255.771.609,1.507.919,2.257.15-.023.3-.046.451-.072.095-1.122.229-2.243.278-3.368.333-7.689,3.439-13.627,10.769-16.775a20.762,20.762,0,0,1,16.428-.391,14.772,14.772,0,0,1,6.427,4.173c4.08,5.071,5.772,10.746,4.173,17.187-.229.923.032,1.259.831,1.643a24.321,24.321,0,0,1,6.638,4.168,4.865,4.865,0,0,1-.694.646,6.955,6.955,0,0,1-.967.426c.109.148.22.3.331.447.389.287.778.572,1.268.933.324-.669.625-1.2.852-1.766C-1640.771,149.1-1641.194,142.329-1643.423,135.589Zm-69.651,46.275q1.33.965,2.657,1.935c-.058.079-.116.157-.171.236q-1.347-.969-2.692-1.939C-1713.21,182.017-1713.143,181.94-1713.074,181.864Zm-23.471-22.716q2.743,3.8,5.481,7.605c-.069.088-.139.176-.208.266a5.362,5.362,0,0,1-1.2-.958c-1.521-2.189-2.986-4.418-4.471-6.633C-1736.808,159.333-1736.677,159.24-1736.545,159.148Zm68.88-37.765c-.65-.058-1.3-.113-1.949-.169.03-.222.058-.444.086-.667l1.926.333C-1667.623,121.047-1667.644,121.214-1667.664,121.383Z" transform="translate(0 0)" fill="url(#a)"/><path d="M-1430.385,305.012c-8.294,8.044-17.806,14.186-27.554,20.578-.61-1.441-1.246-2.732-1.71-4.083-.867-2.524-.815-2.525,1.263-4.148,2.884-2.253,5.734-4.55,8.633-6.785a33.021,33.021,0,0,1,3.259-2.188,28.8,28.8,0,0,0,7.866-7.234,1.389,1.389,0,0,1,1.939-.521A16.526,16.526,0,0,1-1430.385,305.012Z" transform="translate(-220.194 -139.388)" fill="url(#a)"/></g><g transform="translate(2119.898 81.295)" opacity="0.32"><path d="M-1407.607,282c-1.609-9.005-7.073-14.991-15.849-17.7a31.742,31.742,0,0,0-13.306-.729c-5.592.678-10.933,2.284-15.345,5.895-2.389,1.956-4.3,4.49-6.43,6.767-.28.3-.546.613-.819.919-.113-.042-.227-.086-.34-.13,0-.484-.009-.967,0-1.451.118-5.566-2.046-10.07-6.73-13.042-3.168-2.011-6.661-3.518-10.008-5.249q-.6-.312-1.2-.623c.051-.125.1-.25.155-.375l9.424,2.662c.053-.12.1-.241.157-.359-1.9-.891-3.759-1.87-5.7-2.657-6.876-2.784-14.028-1.933-21.006-.917-5.971.87-10.41,4.615-13.4,9.9a32.466,32.466,0,0,0-4.083,12.558c-.8,7.226.641,13.789,5.406,19.469a62.561,62.561,0,0,0,11.239,10.459c6.895,5,13.933,9.8,20.987,14.576a12.778,12.778,0,0,1,4.682,5.42c.493,1.088,1.016,2.164,1.523,3.245.336.715.692,1.187,1.578.558.211-.15.953.1,1.162.382a3.869,3.869,0,0,1,.572,1.615c.317,1.9.551,3.812.873,5.71a4.608,4.608,0,0,0,.567,1.162,8.309,8.309,0,0,0,.928-.9c1.377-1.791,2.426-3.992,4.147-5.335,4.981-3.881,10.144-7.545,15.391-11.065,8.811-5.909,17.645-11.762,25.591-18.846a29.569,29.569,0,0,0,6.432-7.212C-1408.405,292.142-1406.678,287.2-1407.607,282Zm-76.775-26.558c.026.164.053.329.079.5a1.619,1.619,0,0,1-2.178.278c-.023-.146-.046-.289-.069-.433Zm-24.167,32.668a22.4,22.4,0,0,1,4.532,6.976A13.151,13.151,0,0,1-1508.549,288.108Zm24.225,23.165q-1.812-1.225-3.622-2.453c.079-.116.157-.229.234-.345q1.812,1.225,3.62,2.453C-1484.168,311.044-1484.247,311.157-1484.323,311.273Zm40.616,8.036c-.09-.125-.181-.25-.273-.375q1.948-1.413,3.9-2.824c.088.12.176.241.264.359Zm20.559-17.481,5.765-8.04C-1417.964,296.905-1421.475,301.777-1423.148,301.828Zm5.906-15.722a16.773,16.773,0,0,1-3.493,8.311,90.477,90.477,0,0,1-14.789,13.938c-5.349,4.178-10.818,8.2-16.157,12.389-1.872,1.467-3.525,3.215-5.254,4.865-1.828,1.747-3.627,3.53-5.638,5.49a16.939,16.939,0,0,1-.771-1.868c-1.632-6.254-5.372-11.01-10.438-14.856-4.328-3.286-8.432-6.916-12.977-9.862a40.348,40.348,0,0,1-13.523-14.641c-4.594-8.378-3.543-16.243,2.56-23.274,2.268-2.613,5.5-3.844,8.811-4.569,8.063-1.766,15.069.2,20.612,6.45,2.611,2.942,3.486,6.638,3.775,10.482.109,1.451.231,2.9.345,4.349.123.028.245.053.368.079.289-.673.634-1.331.856-2.025a3.09,3.09,0,0,1,2.064-2.12,16.151,16.151,0,0,0,2.8-1.759,23.677,23.677,0,0,1,2.914-1.819c4.4-1.977,8.786-3.972,13.255-5.772a25.267,25.267,0,0,1,12.473-1.747c.269.032.537.067.8.113s.518.106.778.16c-.014.088-.026.174-.039.259l-5.076.778c-.009.088-.021.178-.03.266.491.083.988.137,1.472.255,2.386.595,4.807,1.083,7.138,1.847a6.46,6.46,0,0,1,4.171,4.474c.669,2.044,1.558,4.02,2.416,6A6.676,6.676,0,0,1-1417.242,286.106Z" transform="translate(-180.14 -103.73)" fill="url(#a)"/><path d="M-1643.423,135.589a24.213,24.213,0,0,0-6.166-10.454,18.831,18.831,0,0,0-11-5.425c-2.335-.245-4.684-.389-7.029-.549a29.079,29.079,0,0,0-17.833,4.127c-.3.19-.574.433-.861.65.037.067.074.137.111.206l9.663-2.757c0,.294-.055.405-.143.447-.312.148-.646.252-.956.407-3.194,1.611-6.506,3.032-9.549,4.888a14.208,14.208,0,0,0-7.189,11.63c-.072,1.06-.009,2.127-.009,3.189-.123.037-.243.072-.366.106-.285-.349-.581-.694-.856-1.051-3.088-4.016-6.513-7.584-11.306-9.644-7.668-3.3-15.615-4.3-23.621-2.076-9.126,2.541-14.877,8.881-15.99,18.261-.912,7.686,2.176,14.449,7.955,19.761a188.117,188.117,0,0,0,23.057,17.6c6.5,4.349,12.889,8.881,19.212,13.491a23.169,23.169,0,0,1,3.793,4.289c.484.59.766,1.34,1.2,1.974.171.25.535.562.757.525.238-.039.479-.43.6-.717a4.56,4.56,0,0,0,.176-1.021c.313-1.977.56-3.967.977-5.92a6.925,6.925,0,0,1,1.157-1.863c-.718-.889-1.565-1.939-2.509-3.108-.454,1.183-.819,2.132-1.3,3.386-1.609-1.516-3.032-2.849-4.446-4.194-2.064-1.965-3.985-4.106-6.207-5.872-4.981-3.958-10.151-7.672-15.164-11.588a100.052,100.052,0,0,1-15.75-14.6,16.594,16.594,0,0,1-3.652-8.242,6.956,6.956,0,0,1,.474-3.953c.947-2.189,1.824-4.411,2.655-6.647a5.449,5.449,0,0,1,3.143-3.509c2.192-.8,4.453-1.421,6.707-2.039a26.787,26.787,0,0,1,2.958-.477v-.359q-2.534-.41-5.069-.822a5.522,5.522,0,0,1,1.849-.424,28.579,28.579,0,0,1,14.053,2.664c3.425,1.5,6.8,3.111,10.253,4.553a14.11,14.11,0,0,1,4.279,2.666,5.8,5.8,0,0,0,2.259,1.308,2.648,2.648,0,0,1,1.921,1.93c.255.771.609,1.507.919,2.257.15-.023.3-.046.451-.072.095-1.122.229-2.243.278-3.368.333-7.689,3.439-13.627,10.769-16.775a20.762,20.762,0,0,1,16.428-.391,14.772,14.772,0,0,1,6.427,4.173c4.08,5.071,5.772,10.746,4.173,17.187-.229.923.032,1.259.831,1.643a24.321,24.321,0,0,1,6.638,4.168,4.865,4.865,0,0,1-.694.646,6.955,6.955,0,0,1-.967.426c.109.148.22.3.331.447.389.287.778.572,1.268.933.324-.669.625-1.2.852-1.766C-1640.771,149.1-1641.194,142.329-1643.423,135.589Zm-69.651,46.275q1.33.965,2.657,1.935c-.058.079-.116.157-.171.236q-1.347-.969-2.692-1.939C-1713.21,182.017-1713.143,181.94-1713.074,181.864Zm-23.471-22.716q2.743,3.8,5.481,7.605c-.069.088-.139.176-.208.266a5.362,5.362,0,0,1-1.2-.958c-1.521-2.189-2.986-4.418-4.471-6.633C-1736.808,159.333-1736.677,159.24-1736.545,159.148Zm68.88-37.765c-.65-.058-1.3-.113-1.949-.169.03-.222.058-.444.086-.667l1.926.333C-1667.623,121.047-1667.644,121.214-1667.664,121.383Z" transform="translate(0 0)" fill="url(#a)"/><path d="M-1430.385,305.012c-8.294,8.044-17.806,14.186-27.554,20.578-.61-1.441-1.246-2.732-1.71-4.083-.867-2.524-.815-2.525,1.263-4.148,2.884-2.253,5.734-4.55,8.633-6.785a33.021,33.021,0,0,1,3.259-2.188,28.8,28.8,0,0,0,7.866-7.234,1.389,1.389,0,0,1,1.939-.521A16.526,16.526,0,0,1-1430.385,305.012Z" transform="translate(-220.194 -139.388)" fill="url(#a)"/></g><g transform="translate(2290.898 47.239)" opacity="0.32"><path d="M-1407.607,282c-1.609-9.005-7.073-14.991-15.849-17.7a31.742,31.742,0,0,0-13.306-.729c-5.592.678-10.933,2.284-15.345,5.895-2.389,1.956-4.3,4.49-6.43,6.767-.28.3-.546.613-.819.919-.113-.042-.227-.086-.34-.13,0-.484-.009-.967,0-1.451.118-5.566-2.046-10.07-6.73-13.042-3.168-2.011-6.661-3.518-10.008-5.249q-.6-.312-1.2-.623c.051-.125.1-.25.155-.375l9.424,2.662c.053-.12.1-.241.157-.359-1.9-.891-3.759-1.87-5.7-2.657-6.876-2.784-14.028-1.933-21.006-.917-5.971.87-10.41,4.615-13.4,9.9a32.466,32.466,0,0,0-4.083,12.558c-.8,7.226.641,13.789,5.406,19.469a62.561,62.561,0,0,0,11.239,10.459c6.895,5,13.933,9.8,20.987,14.576a12.778,12.778,0,0,1,4.682,5.42c.493,1.088,1.016,2.164,1.523,3.245.336.715.692,1.187,1.578.558.211-.15.953.1,1.162.382a3.869,3.869,0,0,1,.572,1.615c.317,1.9.551,3.812.873,5.71a4.608,4.608,0,0,0,.567,1.162,8.309,8.309,0,0,0,.928-.9c1.377-1.791,2.426-3.992,4.147-5.335,4.981-3.881,10.144-7.545,15.391-11.065,8.811-5.909,17.645-11.762,25.591-18.846a29.569,29.569,0,0,0,6.432-7.212C-1408.405,292.142-1406.678,287.2-1407.607,282Zm-76.775-26.558c.026.164.053.329.079.5a1.619,1.619,0,0,1-2.178.278c-.023-.146-.046-.289-.069-.433Zm-24.167,32.668a22.4,22.4,0,0,1,4.532,6.976A13.151,13.151,0,0,1-1508.549,288.108Zm24.225,23.165q-1.812-1.225-3.622-2.453c.079-.116.157-.229.234-.345q1.812,1.225,3.62,2.453C-1484.168,311.044-1484.247,311.157-1484.323,311.273Zm40.616,8.036c-.09-.125-.181-.25-.273-.375q1.948-1.413,3.9-2.824c.088.12.176.241.264.359Zm20.559-17.481,5.765-8.04C-1417.964,296.905-1421.475,301.777-1423.148,301.828Zm5.906-15.722a16.773,16.773,0,0,1-3.493,8.311,90.477,90.477,0,0,1-14.789,13.938c-5.349,4.178-10.818,8.2-16.157,12.389-1.872,1.467-3.525,3.215-5.254,4.865-1.828,1.747-3.627,3.53-5.638,5.49a16.939,16.939,0,0,1-.771-1.868c-1.632-6.254-5.372-11.01-10.438-14.856-4.328-3.286-8.432-6.916-12.977-9.862a40.348,40.348,0,0,1-13.523-14.641c-4.594-8.378-3.543-16.243,2.56-23.274,2.268-2.613,5.5-3.844,8.811-4.569,8.063-1.766,15.069.2,20.612,6.45,2.611,2.942,3.486,6.638,3.775,10.482.109,1.451.231,2.9.345,4.349.123.028.245.053.368.079.289-.673.634-1.331.856-2.025a3.09,3.09,0,0,1,2.064-2.12,16.151,16.151,0,0,0,2.8-1.759,23.677,23.677,0,0,1,2.914-1.819c4.4-1.977,8.786-3.972,13.255-5.772a25.267,25.267,0,0,1,12.473-1.747c.269.032.537.067.8.113s.518.106.778.16c-.014.088-.026.174-.039.259l-5.076.778c-.009.088-.021.178-.03.266.491.083.988.137,1.472.255,2.386.595,4.807,1.083,7.138,1.847a6.46,6.46,0,0,1,4.171,4.474c.669,2.044,1.558,4.02,2.416,6A6.676,6.676,0,0,1-1417.242,286.106Z" transform="translate(-180.14 -103.73)" fill="url(#a)"/><path d="M-1643.423,135.589a24.213,24.213,0,0,0-6.166-10.454,18.831,18.831,0,0,0-11-5.425c-2.335-.245-4.684-.389-7.029-.549a29.079,29.079,0,0,0-17.833,4.127c-.3.19-.574.433-.861.65.037.067.074.137.111.206l9.663-2.757c0,.294-.055.405-.143.447-.312.148-.646.252-.956.407-3.194,1.611-6.506,3.032-9.549,4.888a14.208,14.208,0,0,0-7.189,11.63c-.072,1.06-.009,2.127-.009,3.189-.123.037-.243.072-.366.106-.285-.349-.581-.694-.856-1.051-3.088-4.016-6.513-7.584-11.306-9.644-7.668-3.3-15.615-4.3-23.621-2.076-9.126,2.541-14.877,8.881-15.99,18.261-.912,7.686,2.176,14.449,7.955,19.761a188.117,188.117,0,0,0,23.057,17.6c6.5,4.349,12.889,8.881,19.212,13.491a23.169,23.169,0,0,1,3.793,4.289c.484.59.766,1.34,1.2,1.974.171.25.535.562.757.525.238-.039.479-.43.6-.717a4.56,4.56,0,0,0,.176-1.021c.313-1.977.56-3.967.977-5.92a6.925,6.925,0,0,1,1.157-1.863c-.718-.889-1.565-1.939-2.509-3.108-.454,1.183-.819,2.132-1.3,3.386-1.609-1.516-3.032-2.849-4.446-4.194-2.064-1.965-3.985-4.106-6.207-5.872-4.981-3.958-10.151-7.672-15.164-11.588a100.052,100.052,0,0,1-15.75-14.6,16.594,16.594,0,0,1-3.652-8.242,6.956,6.956,0,0,1,.474-3.953c.947-2.189,1.824-4.411,2.655-6.647a5.449,5.449,0,0,1,3.143-3.509c2.192-.8,4.453-1.421,6.707-2.039a26.787,26.787,0,0,1,2.958-.477v-.359q-2.534-.41-5.069-.822a5.522,5.522,0,0,1,1.849-.424,28.579,28.579,0,0,1,14.053,2.664c3.425,1.5,6.8,3.111,10.253,4.553a14.11,14.11,0,0,1,4.279,2.666,5.8,5.8,0,0,0,2.259,1.308,2.648,2.648,0,0,1,1.921,1.93c.255.771.609,1.507.919,2.257.15-.023.3-.046.451-.072.095-1.122.229-2.243.278-3.368.333-7.689,3.439-13.627,10.769-16.775a20.762,20.762,0,0,1,16.428-.391,14.772,14.772,0,0,1,6.427,4.173c4.08,5.071,5.772,10.746,4.173,17.187-.229.923.032,1.259.831,1.643a24.321,24.321,0,0,1,6.638,4.168,4.865,4.865,0,0,1-.694.646,6.955,6.955,0,0,1-.967.426c.109.148.22.3.331.447.389.287.778.572,1.268.933.324-.669.625-1.2.852-1.766C-1640.771,149.1-1641.194,142.329-1643.423,135.589Zm-69.651,46.275q1.33.965,2.657,1.935c-.058.079-.116.157-.171.236q-1.347-.969-2.692-1.939C-1713.21,182.017-1713.143,181.94-1713.074,181.864Zm-23.471-22.716q2.743,3.8,5.481,7.605c-.069.088-.139.176-.208.266a5.362,5.362,0,0,1-1.2-.958c-1.521-2.189-2.986-4.418-4.471-6.633C-1736.808,159.333-1736.677,159.24-1736.545,159.148Zm68.88-37.765c-.65-.058-1.3-.113-1.949-.169.03-.222.058-.444.086-.667l1.926.333C-1667.623,121.047-1667.644,121.214-1667.664,121.383Z" transform="translate(0 0)" fill="url(#a)"/><path d="M-1430.385,305.012c-8.294,8.044-17.806,14.186-27.554,20.578-.61-1.441-1.246-2.732-1.71-4.083-.867-2.524-.815-2.525,1.263-4.148,2.884-2.253,5.734-4.55,8.633-6.785a33.021,33.021,0,0,1,3.259-2.188,28.8,28.8,0,0,0,7.866-7.234,1.389,1.389,0,0,1,1.939-.521A16.526,16.526,0,0,1-1430.385,305.012Z" transform="translate(-220.194 -139.388)" fill="url(#a)"/></g></g></svg>