<svg xmlns="http://www.w3.org/2000/svg" width="38.426" height="31.341" viewBox="0 0 38.426 31.341"><g transform="translate(1.5 1.5)"><path d="M6.543,4.5H34.883a5.048,5.048,0,0,1,5.043,5.043V30.8a5.048,5.048,0,0,1-5.043,5.043H6.543A5.048,5.048,0,0,1,1.5,30.8V9.543A5.048,5.048,0,0,1,6.543,4.5ZM34.883,32.841A2.045,2.045,0,0,0,36.926,30.8V9.543A2.045,2.045,0,0,0,34.883,7.5H6.543A2.045,2.045,0,0,0,4.5,9.543V30.8a2.045,2.045,0,0,0,2.043,2.043Z" transform="translate(-3 -6)" fill="#f3f3f3"/><path d="M20.713,22.9a1.5,1.5,0,0,1-.86-.271L2.14,10.229A1.5,1.5,0,1,1,3.86,7.771l16.853,11.8,16.853-11.8a1.5,1.5,0,1,1,1.72,2.458l-17.713,12.4A1.5,1.5,0,0,1,20.713,22.9Z" transform="translate(-3 -5.457)" fill="#f3f3f3"/></g></svg>