<svg xmlns="http://www.w3.org/2000/svg" width="15" height="14.335" viewBox="0 0 15 14.335"><path d="M14.8,12.394,11.875,9.6a.72.72,0,0,0-.5-.2H10.9a5.633,5.633,0,0,0,1.289-3.584A5.962,5.962,0,0,0,6.094,0,5.962,5.962,0,0,0,0,5.823a5.962,5.962,0,0,0,6.094,5.823,6.246,6.246,0,0,0,3.75-1.232v.456a.657.657,0,0,0,.205.476l2.921,2.791a.723.723,0,0,0,.993,0l.829-.792a.654.654,0,0,0,0-.952Zm-8.7-2.987a3.668,3.668,0,0,1-3.75-3.584A3.668,3.668,0,0,1,6.094,2.24a3.668,3.668,0,0,1,3.75,3.584A3.668,3.668,0,0,1,6.094,9.407Z" fill="#f4f4f4"/></svg>